# xmcd
#
# Track frame offsets:
#	150
#	17620
#	34711
#	49342
#	62644
#	80355
#	103587
#	119722
#	136933
#	151303
#	164690
#	181638
#
# Disc length: 2631 seconds
#
# Revision: 0
# Processed by: cddbd v1.5.2PL0 Copyright (c) Steve Scherf et al.
# Submitted via: EasyCDDAExtractor 12.0.4.1
#
DISCID=980a450c
DTITLE=Don Williams - Flatlands
DYEAR=1996
DGENRE=Country
TTITLE0=Shadow Land
TTITLE1=What Does It Matter To Me
TTITLE2=Glass House
TTITLE3=We Should Only Have Time For Love
TTITLE4=I Need You To Want Me
TTITLE5=This Side Of The Sun
TTITLE6=Gulf Shore Line
TTITLE7=Wash It All Away
TTITLE8=Which Way To Santa Fe
TTITLE9=No Problem
TTITLE10=Leaving For The Flatlands
TTITLE11=Silver Turns To Gold
EXTD=
EXTT0=
EXTT1=
EXTT2=
EXTT3=
EXTT4=
EXTT5=
EXTT6=
EXTT7=
EXTT8=
EXTT9=
EXTT10=
EXTT11=
PLAYORDER=
